<?xml version="1.0" encoding="UTF-8"?>
<!-- Generator: Adobe Illustrator 18.0.0, SVG Export Plug-In . SVG Version: 6.00 Build 0)  -->
<!DOCTYPE svg PUBLIC "-//W3C//DTD SVG 1.1//EN" "http://www.w3.org/Graphics/SVG/1.1/DTD/svg11.dtd">
<svg version="1.1" id="Layer_1" xmlns="http://www.w3.org/2000/svg" xmlns:xlink="http://www.w3.org/1999/xlink" x="0px" y="0px" viewBox="0 157.1 515.9 515.9" enable-background="new 0 157.1 515.9 515.9" xml:space="preserve">
<path fill="#1AB7EA" d="M258,157.1c-142.5,0-258,115.5-258,258s115.5,258,258,258s258-115.5,258-258S400.4,157.1,258,157.1z   M402.2,365.8L239.6,528.3c-4,4-9.5,6.3-15.2,6.3c-5.7,0-11.2-2.3-15.2-6.3l-74.2-74.2c-8.5-8.5-8.5-22,0-30.4  c8.5-8.5,22-8.5,30.4,0l59,59l147.3-147.3c8.5-8.5,22-8.5,30.4,0C410.6,343.8,410.6,357.4,402.2,365.8z"/>
</svg>